<svg xmlns="http://www.w3.org/2000/svg" version="1.1" xmlns:xlink="http://www.w3.org/1999/xlink" xmlns:svgjs="http://svgjs.dev/svgjs" width="1500" height="1500" viewBox="0 0 1500 1500"><rect width="1500" height="1500" fill="#aaaaaa"></rect><g transform="matrix(0.6666666666666666,0,0,0.6666666666666666,249.39393939393938,666.1032361999526)"><svg viewBox="0 0 396 67" data-background-color="#aaaaaa" preserveAspectRatio="xMidYMid meet" height="253" width="1500" xmlns="http://www.w3.org/2000/svg" xmlns:xlink="http://www.w3.org/1999/xlink"><g id="tight-bounds" transform="matrix(1,0,0,1,0.2400000000000091,-0.17341991341990592)"><svg viewBox="0 0 395.52 67.34683982683983" height="67.34683982683983" width="395.52"><g><svg viewBox="0 0 395.52 67.34683982683983" height="67.34683982683983" width="395.52"><g><svg viewBox="0 0 395.52 67.34683982683983" height="67.34683982683983" width="395.52"><g id="textblocktransform"><svg viewBox="0 0 395.52 67.34683982683983" height="67.34683982683983" width="395.52" id="textblock"><g><svg viewBox="0 0 395.52 67.34683982683983" height="67.34683982683983" width="395.52"><g transform="matrix(1,0,0,1,0,0)"><svg width="395.52" viewBox="3.81 -34.38 203.01 34.580000000000005" height="67.34683982683983" data-palette-color="#111111"><path d="M19.63-7.91L19.14-7.91Q18.43-7.91 17.93-8.18 17.43-8.45 17.07-8.86 16.7-9.28 16.44-9.79 16.19-10.3 16.02-10.79L16.02-10.79 11.38-24.17 10.74-24.17 10.74-3.81Q10.74-3.03 10.64-2.34 10.55-1.66 10.22-1.14 9.89-0.61 9.24-0.31 8.59 0 7.47 0L7.47 0Q6.2 0 5.47-0.31 4.74-0.61 4.37-1.14 4-1.66 3.91-2.34 3.81-3.03 3.81-3.81L3.81-3.81 3.81-28.61Q3.81-29.66 3.87-30.66 3.93-31.67 4.27-32.45 4.61-33.23 5.36-33.7 6.1-34.18 7.47-34.18L7.47-34.18 10.79-34.18Q11.62-34.18 12.19-34.12 12.77-34.06 13.26-33.7 13.75-33.35 14.22-32.57 14.7-31.79 15.27-30.36 15.84-28.93 16.6-26.72 17.36-24.51 18.46-21.29L18.46-21.29 19.09-19.34 19.68-19.34 20.46-21.78Q21.46-24.85 22.17-26.98 22.88-29.1 23.41-30.48 23.95-31.86 24.38-32.6 24.8-33.35 25.28-33.7 25.76-34.06 26.32-34.12 26.88-34.18 27.69-34.18L27.69-34.18 31.25-34.18Q32.62-34.18 33.36-33.7 34.11-33.23 34.45-32.45 34.79-31.67 34.85-30.66 34.91-29.66 34.91-28.61L34.91-28.61 34.91-3.81Q34.91-3.03 34.81-2.34 34.72-1.66 34.35-1.14 33.98-0.61 33.25-0.31 32.52 0 31.25 0L31.25 0Q30.13 0 29.48-0.31 28.83-0.61 28.5-1.14 28.17-1.66 28.08-2.34 27.98-3.03 27.98-3.81L27.98-3.81 27.98-24.17 27.29-24.17 22.71-10.79Q22.51-10.3 22.27-9.79 22.02-9.28 21.66-8.86 21.29-8.45 20.8-8.18 20.31-7.91 19.63-7.91L19.63-7.91ZM61.18-18.85L61.18-5.52Q61.18-4.49 61.11-3.5 61.03-2.51 60.67-1.73 60.3-0.95 59.57-0.48 58.84 0 57.52 0L57.52 0Q56.17 0 55.42-0.45 54.66-0.9 54.29-1.55 53.93-2.2 53.84-2.91 53.76-3.61 53.76-4.1L53.76-4.1Q53.54-3.39 53.13-2.66 52.73-1.93 52.1-1.34 51.46-0.76 50.57-0.38 49.68 0 48.48 0L48.48 0Q47.14 0 45.8-0.44 44.46-0.88 43.38-1.9 42.31-2.93 41.64-4.58 40.96-6.23 40.96-8.64L40.96-8.64 40.96-15.72Q40.96-18.16 41.64-19.81 42.31-21.46 43.38-22.47 44.46-23.49 45.8-23.93 47.14-24.37 48.48-24.37L48.48-24.37Q49.68-24.37 50.57-24 51.46-23.63 52.1-23.05 52.73-22.46 53.13-21.73 53.54-21 53.76-20.26L53.76-20.26Q53.76-21.48 54.1-22.29 54.44-23.1 54.98-23.57 55.52-24.05 56.19-24.23 56.86-24.41 57.52-24.41L57.52-24.41Q58.74-24.41 59.47-23.94 60.2-23.46 60.58-22.69 60.96-21.92 61.07-20.91 61.18-19.9 61.18-18.85L61.18-18.85ZM48.48-15.19L48.48-9.28Q48.48-8.62 48.53-7.98 48.58-7.35 48.8-6.84 49.02-6.32 49.45-6.02 49.88-5.71 50.63-5.71L50.63-5.71Q51.58-5.71 52.18-6.14 52.78-6.57 53.12-7.46 53.46-8.35 53.6-9.7 53.73-11.06 53.76-12.94L53.76-12.94Q53.76-13.7 53.62-14.69 53.49-15.67 53.15-16.55 52.81-17.43 52.19-18.04 51.58-18.65 50.63-18.65L50.63-18.65Q49.88-18.65 49.45-18.35 49.02-18.04 48.8-17.55 48.58-17.07 48.53-16.44 48.48-15.82 48.48-15.19L48.48-15.19ZM73.29-16.02L73.29-8.45Q73.29-8.06 73.36-7.46 73.43-6.86 73.7-6.29 73.97-5.71 74.49-5.3 75.02-4.88 75.92-4.88L75.92-4.88Q77-4.88 77.61-5.13 78.22-5.37 78.51-5.8 78.8-6.23 78.88-6.8 78.95-7.37 78.95-8.01L78.95-8.01Q78.95-8.33 79.06-8.73 79.17-9.13 79.58-9.48 80-9.84 80.82-10.07 81.64-10.3 83.05-10.3L83.05-10.3Q84.35-10.3 85.05-10.01 85.76-9.72 86.09-9.31 86.42-8.91 86.47-8.48 86.52-8.06 86.52-7.81L86.52-7.81Q86.52-6.25 86.04-5.07 85.57-3.88 84.76-3.02 83.95-2.15 82.91-1.56 81.86-0.98 80.67-0.63 79.49-0.29 78.27-0.15 77.05 0 75.92 0L75.92 0Q73.99 0 72.19-0.51 70.38-1.03 68.98-2.12 67.57-3.22 66.72-4.94 65.86-6.67 65.86-9.08L65.86-9.08 65.86-14.79Q65.86-17.11 66.41-18.73 66.96-20.34 67.84-21.41 68.72-22.49 69.82-23.08 70.92-23.68 72.04-23.97 73.16-24.27 74.18-24.34 75.19-24.41 75.92-24.41L75.92-24.41Q78.1-24.41 79.72-24.05 81.34-23.68 82.51-23.07 83.69-22.46 84.46-21.67 85.22-20.87 85.66-20 86.1-19.12 86.29-18.24 86.47-17.36 86.47-16.6L86.47-16.6Q86.47-16.21 86.42-15.69 86.37-15.16 86.04-14.69 85.71-14.21 85-13.87 84.3-13.53 83-13.53L83-13.53Q82.54-13.53 81.84-13.56 81.15-13.6 80.49-13.82 79.83-14.04 79.37-14.5 78.9-14.97 78.9-15.82L78.9-15.82Q78.9-16.41 78.84-16.96 78.78-17.5 78.49-17.92 78.19-18.33 77.6-18.59 77-18.85 75.92-18.85L75.92-18.85Q75.02-18.85 74.49-18.55 73.97-18.26 73.7-17.82 73.43-17.38 73.36-16.89 73.29-16.41 73.29-16.02L73.29-16.02ZM91.89-5.47L91.89-28.76Q91.89-29.79 91.96-30.76 92.03-31.74 92.38-32.5 92.72-33.25 93.41-33.72 94.11-34.18 95.35-34.18L95.35-34.18Q96.62-34.18 97.32-33.72 98.01-33.25 98.34-32.5 98.67-31.74 98.75-30.76 98.82-29.79 98.82-28.76L98.82-28.76 98.82-19.14 99.21-19.14 104.24-25.05Q104.68-25.56 105.27-25.79 105.85-26.03 106.49-26.03L106.49-26.03Q107.1-26.03 107.72-25.79 108.34-25.56 108.82-25.13 109.29-24.71 109.6-24.11 109.9-23.51 109.9-22.75L109.9-22.75Q109.9-21.78 109.22-20.95L109.22-20.95 104.83-15.77 109.61-6.64Q110.05-5.76 110.37-4.87 110.69-3.98 110.69-3.17L110.69-3.17Q110.69-2.39 110.34-1.78 110-1.17 109.45-0.77 108.9-0.37 108.23-0.16 107.56 0.05 106.93 0.05L106.93 0.05Q106.12 0.05 105.49-0.34 104.85-0.73 104.37-1.31 103.9-1.88 103.53-2.54 103.17-3.2 102.92-3.76L102.92-3.76 100.19-9.57 98.82-9.57 98.82-5.47Q98.82-4.44 98.75-3.45 98.67-2.47 98.34-1.7 98.01-0.93 97.32-0.46 96.62 0 95.35 0L95.35 0Q94.11 0 93.41-0.46 92.72-0.93 92.38-1.7 92.03-2.47 91.96-3.45 91.89-4.44 91.89-5.47L91.89-5.47ZM116.74-5.47L116.74-18.95Q116.74-19.97 116.85-20.95 116.96-21.92 117.35-22.69 117.74-23.46 118.47-23.94 119.2-24.41 120.45-24.41L120.45-24.41Q121.69-24.41 122.43-23.94 123.16-23.46 123.55-22.69 123.94-21.92 124.05-20.95 124.16-19.97 124.16-18.95L124.16-18.95 124.16-5.47Q124.16-4.44 124.05-3.45 123.94-2.47 123.55-1.7 123.16-0.93 122.43-0.46 121.69 0 120.45 0L120.45 0Q119.2 0 118.47-0.46 117.74-0.93 117.35-1.7 116.96-2.47 116.85-3.45 116.74-4.44 116.74-5.47L116.74-5.47ZM124.21-30.47L124.21-30.47Q124.21-28.59 123.23-27.67 122.26-26.76 120.5-26.76L120.5-26.76Q118.74-26.76 117.76-27.67 116.79-28.59 116.79-30.47L116.79-30.47Q116.79-32.42 117.76-33.3 118.74-34.18 120.5-34.18L120.5-34.18Q122.38-34.18 123.29-33.3 124.21-32.42 124.21-30.47ZM151.11-15.43L151.11-13.92Q151.11-13.53 151.06-13 151.01-12.48 150.68-12 150.35-11.52 149.65-11.18 148.94-10.84 147.64-10.84L147.64-10.84 137.93-10.84 137.93-8.5Q137.93-7.91 138.07-7.28 138.22-6.64 138.57-6.1 138.93-5.57 139.51-5.22 140.1-4.88 140.95-4.88L140.95-4.88Q141.93-4.88 142.46-5.11 142.98-5.35 143.29-5.69 143.59-6.03 143.84-6.42 144.08-6.81 144.48-7.15 144.88-7.5 145.61-7.73 146.33-7.96 147.59-7.96L147.59-7.96Q148.21-7.96 148.78-7.86 149.35-7.76 149.79-7.5 150.23-7.23 150.5-6.75 150.77-6.27 150.77-5.52L150.77-5.52Q150.77-3.93 149.77-2.87 148.77-1.81 147.25-1.17 145.74-0.54 143.97-0.27 142.2 0 140.66 0L140.66 0Q138.63-0.02 136.8-0.51 134.97-1 133.57-2.08 132.17-3.15 131.34-4.88 130.51-6.62 130.51-9.13L130.51-9.13 130.51-14.84Q130.51-17.16 131.05-18.77 131.6-20.39 132.48-21.46 133.36-22.53 134.46-23.13 135.56-23.73 136.68-24.02 137.8-24.32 138.82-24.39 139.83-24.46 140.56-24.46L140.56-24.46Q143.03-24.46 144.78-24.02 146.52-23.58 147.69-22.88 148.86-22.17 149.55-21.24 150.23-20.31 150.57-19.32 150.92-18.33 151.01-17.32 151.11-16.31 151.11-15.43L151.11-15.43ZM137.93-16.21L137.93-14.5 144.03-14.5Q144.03-15.65 143.97-16.54 143.91-17.43 143.6-18.04 143.3-18.65 142.65-18.97 142-19.29 140.81-19.29L140.81-19.29Q139.81-19.29 139.23-18.97 138.66-18.65 138.37-18.18 138.07-17.7 138-17.16 137.93-16.63 137.93-16.21L137.93-16.21ZM166.24 0.2L166.24 0.2Q163.56 0.2 161.62-0.42 159.68-1.03 158.35-2 157.02-2.98 156.21-4.21 155.4-5.44 154.98-6.71 154.55-7.98 154.42-9.16 154.28-10.33 154.28-11.18L154.28-11.18Q154.28-11.55 154.34-12.07 154.4-12.6 154.77-13.09 155.14-13.57 155.93-13.92 156.72-14.26 158.19-14.26L158.19-14.26Q158.68-14.26 159.41-14.2 160.14-14.14 160.82-13.88 161.51-13.62 162-13.13 162.49-12.65 162.49-11.82L162.49-11.82Q162.49-10.5 162.64-9.45 162.8-8.4 163.22-7.67 163.63-6.93 164.36-6.54 165.1-6.15 166.24-6.15L166.24-6.15Q167.44-6.15 168.09-6.64 168.74-7.13 169.03-7.74L169.03-7.74Q169.37-8.42 169.42-9.33L169.42-9.33 169.42-27.25 163.02-27.25Q162.05-27.25 161.07-27.34 160.09-27.44 159.3-27.78 158.51-28.13 158.01-28.81 157.5-29.49 157.5-30.66L157.5-30.66Q157.5-31.86 158.01-32.57 158.51-33.28 159.3-33.63 160.09-33.98 161.07-34.08 162.05-34.18 163.02-34.18L163.02-34.18 172.98-34.18Q174.37-34.18 175.19-33.69 176.01-33.2 176.43-32.41 176.84-31.62 176.96-30.62 177.08-29.61 177.08-28.56L177.08-28.56 177.08-10.01Q177.08-7.47 176.35-5.71 175.62-3.96 174.51-2.82 173.4-1.68 172.07-1.07 170.74-0.46 169.53-0.18 168.32 0.1 167.42 0.15 166.51 0.2 166.24 0.2ZM206.82-12.65L206.82-2.25Q206.82-1.93 206.76-1.51 206.7-1.1 206.44-0.72 206.18-0.34 205.7-0.07 205.21 0.2 204.38 0.2L204.38 0.2Q203.45 0.2 202.91-0.06 202.38-0.32 202.09-0.7 201.81-1.07 201.73-1.49 201.64-1.9 201.64-2.25L201.64-2.25 201.64-3.71Q200.47-1.98 198.65-0.89 196.83 0.2 194.17 0.2L194.17 0.2Q193.71 0.2 192.73 0.12 191.75 0.05 190.53-0.27 189.31-0.59 188.02-1.22 186.73-1.86 185.66-2.99 184.6-4.13 183.92-5.82 183.23-7.52 183.23-9.96L183.23-9.96 183.23-23.63Q183.23-25.63 183.72-27.17 184.21-28.71 185-29.85 185.8-30.98 186.82-31.75 187.85-32.52 188.92-33.03L188.92-33.03Q191.41-34.2 194.61-34.38L194.61-34.38Q197.32-34.38 199.25-33.76 201.18-33.15 202.52-32.18 203.86-31.2 204.67-29.97 205.48-28.74 205.92-27.47 206.35-26.2 206.49-25.02 206.62-23.85 206.62-23L206.62-23Q206.62-22.63 206.56-22.11 206.5-21.58 206.13-21.11 205.77-20.63 204.98-20.3 204.18-19.97 202.72-19.97L202.72-19.97Q202.2-19.97 201.46-20.03 200.71-20.09 200.03-20.34 199.35-20.58 198.86-21.06 198.37-21.53 198.37-22.36L198.37-22.36Q198.37-23.68 198.21-24.72 198.05-25.76 197.64-26.49 197.22-27.22 196.49-27.6 195.76-27.98 194.61-27.98L194.61-27.98Q193.42-27.98 192.77-27.49 192.12-27 191.83-26.42L191.83-26.42Q191.49-25.73 191.44-24.85L191.44-24.85 191.44-9.23Q191.44-8.45 191.72-7.76 192-7.08 192.51-6.57 193.02-6.05 193.72-5.76 194.42-5.47 195.25-5.47L195.25-5.47Q196.22-5.47 197.02-5.9 197.81-6.32 198.44-7.04 199.08-7.76 199.58-8.68 200.08-9.59 200.47-10.6L200.47-10.6 198.13-10.6Q197.42-10.67 196.88-10.96L196.88-10.96Q196.39-11.21 196.02-11.69 195.64-12.18 195.64-13.04L195.64-13.04Q195.64-13.96 196.02-14.47 196.39-14.97 196.88-15.21L196.88-15.21Q197.42-15.48 198.13-15.53L198.13-15.53 204.47-15.53Q204.65-15.53 205.02-15.47 205.4-15.41 205.81-15.11 206.21-14.82 206.51-14.25 206.82-13.67 206.82-12.65L206.82-12.65Z" opacity="1" transform="matrix(1,0,0,1,0,0)" fill="#111111" class="wordmark-text-0" data-fill-palette-color="primary" id="text-0"></path></svg></g></svg></g></svg></g></svg></g><g></g></svg></g><defs></defs></svg><rect width="395.52" height="67.34683982683983" fill="none" stroke="none" visibility="hidden"></rect></g></svg></g></svg>